<?xml version="1.0" encoding="UTF-8" standalone="no"?>
<!-- Created with Inkscape (http://www.inkscape.org/) -->

<svg
   width="64mm"
   height="64mm"
   viewBox="0 0 64 64"
   version="1.1"
   id="svg1"
   xml:space="preserve"
   inkscape:version="1.3.2 (091e20e, 2023-11-25)"
   sodipodi:docname="human_player.svg"
   inkscape:export-filename="icon.png"
   inkscape:export-xdpi="96"
   inkscape:export-ydpi="96"
   xmlns:inkscape="http://www.inkscape.org/namespaces/inkscape"
   xmlns:sodipodi="http://sodipodi.sourceforge.net/DTD/sodipodi-0.dtd"
   xmlns="http://www.w3.org/2000/svg"
   xmlns:svg="http://www.w3.org/2000/svg"><sodipodi:namedview
     id="namedview1"
     pagecolor="#ffffff"
     bordercolor="#000000"
     borderopacity="0.25"
     inkscape:showpageshadow="2"
     inkscape:pageopacity="0.0"
     inkscape:pagecheckerboard="0"
     inkscape:deskcolor="#d1d1d1"
     inkscape:document-units="mm"
     inkscape:zoom="2.043487"
     inkscape:cx="109.12719"
     inkscape:cy="128.4569"
     inkscape:window-width="1920"
     inkscape:window-height="1008"
     inkscape:window-x="1920"
     inkscape:window-y="0"
     inkscape:window-maximized="1"
     inkscape:current-layer="svg1" /><defs
     id="defs1" /><g
     inkscape:label="Layer 1"
     inkscape:groupmode="layer"
     id="layer1"
     sodipodi:insensitive="true"
     style="display:none" /><rect
     style="display:none;fill:#aabc46;fill-opacity:1;stroke:#000000;stroke-width:0;stroke-linecap:round;stroke-linejoin:round;stroke-miterlimit:2;stroke-dasharray:none;stroke-opacity:1"
     id="rect5"
     width="64"
     height="64"
     x="0"
     y="0" /><g
     inkscape:groupmode="layer"
     id="layer2"
     inkscape:label="Layer 2"
     style="display:inline" /><rect
     style="opacity:1;fill:#e6c6ba;fill-opacity:1;stroke:#754200;stroke-width:0;stroke-linecap:round;stroke-linejoin:round;stroke-miterlimit:2;stroke-dasharray:none;stroke-opacity:1"
     id="rect6"
     width="64"
     height="64"
     x="5.5511151e-17"
     y="0" /><path
     style="display:none;fill:#aabc46;fill-opacity:1;stroke:#000000;stroke-width:0;stroke-linecap:round;stroke-linejoin:round;stroke-miterlimit:2;stroke-dasharray:none;stroke-opacity:1"
     d="M 22.9061,55.818907 28.545276,41.251504"
     id="path6" /><path
     style="display:none;fill:#aabc46;fill-opacity:1;stroke:#000000;stroke-width:0;stroke-linecap:round;stroke-linejoin:round;stroke-miterlimit:2;stroke-dasharray:none;stroke-opacity:1"
     d="M 19.998887,57.729069 31.714035,41.082759 44.854973,60.340038 31.887956,45.818554 Z"
     id="path7" /><path
     style="opacity:1;fill:#ffffff;stroke:#000000;stroke-width:1;stroke-linecap:round;stroke-linejoin:round;stroke-miterlimit:2;fill-opacity:1;stroke-dasharray:none"
     d="M 6.4145186,15.050181 8.3426929,9.9580775 11.720269,6.7575591 17.284878,5.4217884 21.100512,6.3499068 25.973041,11.889978 24.298066,22.66304 19.54847,26.786112 12.836055,26.752573 7.1610309,23.289788 5.7396041,19.060172 Z"
     id="path1" /><path
     style="opacity:1;fill:#ffffff;fill-opacity:1;stroke:#000000;stroke-width:1;stroke-linecap:round;stroke-linejoin:round;stroke-miterlimit:2;stroke-dasharray:none"
     d="m 37.386183,19.513987 c -0.158494,-1.205148 0.156186,-6.963181 0.156186,-6.963181 l 3.81064,-4.8125405 5.571374,-0.4177599 6.556039,2.6122955 3.13386,5.8102529 -1.451743,7.234854 c 0,0 -5.244488,3.504785 -6.195615,3.648502 -0.951127,0.143716 -7.327112,0.173849 -7.327112,0.173849 z"
     id="path2" /><path
     style="opacity:1;fill:#000000;fill-opacity:1;stroke:#754200;stroke-width:3;stroke-linecap:round;stroke-linejoin:round;stroke-miterlimit:2;stroke-dasharray:none;stroke-opacity:1"
     d="m 12.235772,15.323035 4.159809,-3.00636 4.101614,2.788457 L 19.702792,19.648 14.95601,21.441426 12.260397,19.62899 Z"
     id="path3" /><path
     style="opacity:1;fill:#000000;fill-opacity:1;stroke:#754200;stroke-width:3;stroke-linecap:round;stroke-linejoin:round;stroke-miterlimit:2;stroke-dasharray:none;stroke-opacity:1"
     d="m 42.992928,14.39458 5.222015,-1.512014 4.019426,4.839433 c 0,0 0.851712,2.977747 -0.313163,3.349285 -1.164879,0.371537 -7.067497,1.169669 -7.067497,1.169669 l -3.059385,-1.821394 z"
     id="path4" /><path
     style="opacity:1;fill:#fd8e6c;fill-opacity:1;stroke:#754200;stroke-width:0;stroke-linecap:round;stroke-linejoin:round;stroke-miterlimit:2;stroke-dasharray:none;stroke-opacity:1"
     d="m 24.017303,30.502973 7.066706,-7.230559 6.84916,6.341332 z"
     id="path5" /></svg>
